<svg width="114" height="107" viewBox="0 0 114 107" fill="none" xmlns="http://www.w3.org/2000/svg">
<path d="M113.806 54.0579C113.806 46.5893 107.76 42.6773 99.5803 42.6773H75.7521C77.5303 36.2757 78.2416 30.2297 78.2416 24.8951C78.2416 4.26773 72.5513 0 67.5723 0C64.3715 0 61.882 0.355645 58.6812 2.13386C57.6143 2.84515 57.2586 3.55644 56.903 4.62337L53.3466 23.8281C49.4345 33.7862 39.8321 42.6773 32.0079 48.7232V99.5803C34.8531 99.5803 37.6982 101.003 41.2547 102.781C45.1668 104.559 49.0788 106.693 53.3466 106.693H87.1327C94.2456 106.693 99.5803 101.003 99.5803 96.0238C99.5803 94.9569 99.5803 94.2456 99.2246 93.5343C103.492 91.7561 106.693 88.1997 106.693 83.5763C106.693 81.4424 106.338 79.6642 105.626 77.886C108.471 76.1078 110.961 72.907 110.961 69.3506C110.961 67.2167 109.894 65.0828 108.827 63.3046C111.672 61.1707 113.806 57.6143 113.806 54.0579V54.0579ZM106.338 54.0579C106.338 58.6812 101.714 59.0369 101.003 61.1707C100.292 63.6603 103.848 64.3715 103.848 68.6393C103.848 72.907 98.5133 72.907 97.8021 75.3965C97.0908 78.2417 99.5803 78.9529 99.5803 83.2207V83.932C98.869 87.4884 93.5343 87.844 92.4674 89.2666C91.4005 91.0448 92.4674 91.7561 92.4674 95.6682C92.4674 97.8021 89.9779 99.2246 87.1327 99.2246H53.3466C50.5014 99.2246 47.6563 97.8021 44.0998 96.0238C41.2547 94.6013 38.4095 93.1787 35.5644 92.4674V55.1248C44.4555 48.3676 55.8361 38.4095 60.1038 25.962V25.2507L63.3046 7.46852C64.7272 7.11288 65.7941 7.11288 67.5723 7.11288C68.2836 7.11288 71.1288 11.3806 71.1288 24.8951C71.1288 30.2297 70.0618 35.92 68.2836 42.6773H67.5723C65.4385 42.6773 64.0159 44.0998 64.0159 46.2337C64.0159 48.3676 65.4385 49.7901 67.5723 49.7901H99.5803C103.137 49.7901 106.338 51.5684 106.338 54.0579Z" fill="#C826A4"/>
<path d="M28.4515 106.693H7.11288C3.20079 106.693 0 103.492 0 99.5803V49.7901C0 45.878 3.20079 42.6772 7.11288 42.6772H28.4515C32.3636 42.6772 35.5644 45.878 35.5644 49.7901V99.5803C35.5644 103.492 32.3636 106.693 28.4515 106.693ZM7.11288 49.7901V99.5803H28.4515V49.7901H7.11288Z" fill="#C826A4"/>
</svg>
